<svg xmlns="http://www.w3.org/2000/svg" viewBox="0 0 24 24">
  <defs>
    <style>
      .cls-1{fill:#000;opacity:0;}
      .cls-2{fill:#000;}
    </style>
  </defs>
  <rect class="cls-1" width="24" height="24"/>
  <path class="cls-2" d="M17,6A1,1,0,0,1,17,4h2a1,1,0,0,1,1,1V19a1,1,0,0,1-1,1H17a1,1,0,0,1,0-2h1V6Z"/>
  <g transform="translate(20,0) scale(-1,1)">
    <path class="cls-2" d="M3.18,11.42,6,7.42a1,1,0,0,1,1.39-.24,1,1,0,0,1,.24,1.4L5.91,11,6,11H14a1,1,0,0,1,0,2H6l1.8,2.4a1,1,0,0,1-.2,1.4,1,1,0,0,1-.6.2,1,1,0,0,1-.8-.4l-3-4A1,1,0,0,1,3.18,11.42Z"/>
  </g>
</svg>
